<svg xmlns="http://www.w3.org/2000/svg" xmlns:xlink="http://www.w3.org/1999/xlink" width="500" zoomAndPan="magnify" viewBox="0 0 375 374.999991" height="500" preserveAspectRatio="xMidYMid meet" version="1.0"><path fill="#f6ae2d" d="M 187.5 375 C 84.113281 375 0 290.886719 0 187.5 C 0 84.113281 84.113281 0 187.5 0 C 290.886719 0 375 84.113281 375 187.5 C 375 290.886719 290.886719 375 187.5 375 Z M 187.5 375 " fill-opacity="1" fill-rule="nonzero"/><path fill="#2f4858" d="M 135.496094 237.246094 C 132.714844 237.246094 129.914062 236.363281 127.539062 234.542969 L 80.3125 198.394531 C 77.113281 195.949219 75.214844 192.164062 75.167969 188.136719 C 75.121094 184.109375 76.929688 180.285156 80.070312 177.765625 L 126.328125 140.640625 C 131.976562 136.105469 140.226562 137.015625 144.757812 142.660156 C 149.285156 148.308594 148.382812 156.5625 142.738281 161.089844 L 109.527344 187.742188 L 143.472656 213.726562 C 149.226562 218.125 150.316406 226.355469 145.914062 232.101562 C 143.335938 235.476562 139.4375 237.246094 135.496094 237.246094 Z M 135.496094 237.246094 " fill-opacity="1" fill-rule="nonzero"/><path fill="#2f4858" d="M 239.503906 237.246094 C 235.5625 237.246094 231.664062 235.476562 229.085938 232.101562 C 224.683594 226.355469 225.777344 218.125 231.527344 213.726562 L 265.472656 187.742188 L 232.261719 161.089844 C 226.617188 156.558594 225.710938 148.308594 230.242188 142.660156 C 234.78125 137.015625 243.03125 136.109375 248.671875 140.640625 L 294.929688 177.765625 C 298.070312 180.285156 299.878906 184.109375 299.832031 188.136719 C 299.785156 192.167969 297.886719 195.949219 294.6875 198.394531 L 247.460938 234.542969 C 245.085938 236.363281 242.285156 237.246094 239.503906 237.246094 Z M 239.503906 237.246094 " fill-opacity="1" fill-rule="nonzero"/><path fill="#2f4858" d="M 166.1875 262.34375 C 165.050781 262.34375 163.894531 262.195312 162.746094 261.882812 C 155.757812 259.988281 151.628906 252.785156 153.523438 245.796875 L 186.992188 122.339844 C 188.886719 115.347656 196.085938 111.222656 203.078125 113.113281 C 210.0625 115.007812 214.195312 122.210938 212.300781 129.199219 L 178.828125 252.660156 C 177.25 258.496094 171.957031 262.339844 166.1875 262.339844 Z M 166.1875 262.34375 " fill-opacity="1" fill-rule="nonzero"/></svg>